<svg xmlns="http://www.w3.org/2000/svg" width="43.559" height="50.996" viewBox="0 0 43.559 50.996">
  <defs>
    <style>
      .cls-1 {
        fill: #f58935;
      }
    </style>
  </defs>
  <path id="Path_2311" data-name="Path 2311" class="cls-1" d="M24.749,51c-10.879,0-23-8.212-23-20V1.062A1.062,1.062,0,0,1,2.812,0h7.312A16.117,16.117,0,0,1,25.812,15.724v34.21A1.062,1.062,0,0,1,24.749,51ZM3.875,2.125V31c0,9.866,10.246,17.322,19.812,17.844V15.724c0-7.118-6.464-13.6-13.563-13.6ZM44.247,51H29.624a1.062,1.062,0,0,1-1.062-1.062V27.942a1.062,1.062,0,0,1,1.062-1.062H44.247a1.062,1.062,0,0,1,1.062,1.062V49.934A1.062,1.062,0,0,1,44.247,51ZM30.686,48.871h12.5V29h-12.5Z" transform="translate(-1.75)"/>
</svg>
