<svg xmlns="http://www.w3.org/2000/svg" width="51" height="51" viewBox="0 0 51 51">
  <defs>
    <style>
      .cls-1 {
        fill: #f58935;
      }
    </style>
  </defs>
  <path id="Path_3" data-name="Path 3" class="cls-1" d="M9.5,52h34V47.75H52V35a13.835,13.835,0,0,0-9.738-13.2A9.554,9.554,0,0,0,37.125,4.188a9.46,9.46,0,0,0-2.689.4,10.578,10.578,0,0,0-15.872,0,9.459,9.459,0,0,0-2.689-.4A9.554,9.554,0,0,0,10.738,21.8,13.835,13.835,0,0,0,1,35V47.75H9.5Zm31.875-2.125H11.625V33.938c0-.355.022-.706.053-1.053.011-.114.024-.226.037-.34.029-.24.066-.477.109-.712.022-.119.04-.239.066-.357.066-.3.143-.6.232-.9.045-.147.1-.289.148-.434q.168-.493.38-.969c.068-.152.142-.3.217-.449q.163-.325.344-.639c.106-.182.212-.363.327-.539.089-.136.185-.268.279-.4s.2-.278.309-.413.2-.248.3-.368c.134-.156.273-.307.414-.456a12.055,12.055,0,0,1,.92-.878c.117-.1.238-.193.359-.288.139-.108.279-.215.424-.317s.268-.19.407-.281.285-.175.428-.26q.406-.241.835-.449c.143-.07.285-.143.431-.208l.171-.077a11.632,11.632,0,0,1,4.5-.9h6.375a11.6,11.6,0,0,1,4.5.9l.171.076c.147.064.288.138.431.208q.429.209.835.449c.145.085.289.169.428.26q.428.281.831.6c.121.095.242.189.359.288a11.461,11.461,0,0,1,.92.878c.141.149.282.3.414.456q.319.378.608.781c.095.133.191.264.279.4a12.315,12.315,0,0,1,.672,1.177c.074.149.149.3.217.449q.214.475.38.969c.05.145.1.288.148.434q.134.443.232.9c.026.118.045.238.066.357a12.1,12.1,0,0,1,.2,2.1ZM49.875,35V45.625H43.5V33.938a13.856,13.856,0,0,0-.084-1.493c-.013-.116-.037-.228-.052-.343q-.073-.566-.191-1.125c-.027-.121-.063-.238-.092-.358q-.131-.538-.3-1.065c-.039-.118-.085-.233-.127-.349q-.187-.513-.413-1.01-.08-.174-.167-.344a13.414,13.414,0,0,0-1.323-2.156c-.078-.1-.152-.209-.233-.311q-.35-.44-.736-.85c-.072-.078-.139-.159-.214-.235a13.752,13.752,0,0,0-1.056-.981A11.7,11.7,0,0,1,49.875,35ZM35.768,6.441a7.273,7.273,0,0,1,1.357-.129A7.438,7.438,0,1,1,33.06,19.972c.016-.012.029-.027.044-.039a10.671,10.671,0,0,0,2.336-2.59l.058-.1q.276-.44.508-.906l.073-.153q.212-.441.381-.905l.07-.191q.155-.447.268-.907c.019-.076.041-.152.058-.228.068-.3.119-.607.16-.917.012-.082.029-.163.037-.245a10.075,10.075,0,0,0,.07-1.168,10.631,10.631,0,0,0-.079-1.241c-.015-.13-.039-.257-.059-.387a11.054,11.054,0,0,0-.267-1.245q-.129-.458-.3-.9c-.032-.082-.057-.166-.09-.246a10.563,10.563,0,0,0-.551-1.142.125.125,0,0,1-.011-.02Zm-2.72-.23.065.084c.052.065.1.133.149.2A8.517,8.517,0,0,1,34.509,8.8c.019.053.04.105.058.159a8.434,8.434,0,0,1,.293,1.169c.015.083.027.168.038.252a8.615,8.615,0,0,1,.1,1.242,8.349,8.349,0,0,1-.069,1.034c-.01.08-.024.158-.036.238a8.378,8.378,0,0,1-.169.833c-.015.057-.029.116-.045.173a8.532,8.532,0,0,1-.819,1.953l-.019.032a8.4,8.4,0,0,1-.568.85l-.056.075a8.519,8.519,0,0,1-1.5,1.509l-.1.075a8.561,8.561,0,0,1-.823.553c-.051.03-.1.063-.151.091l-.121.07a8.474,8.474,0,0,1-8.038,0l-.121-.07c-.051-.029-.1-.062-.151-.091a8.56,8.56,0,0,1-.823-.552l-.1-.075a8.591,8.591,0,0,1-1.5-1.509l-.056-.075a8.579,8.579,0,0,1-.568-.85l-.019-.032a8.516,8.516,0,0,1-.82-1.954c-.016-.056-.03-.115-.045-.171a8.462,8.462,0,0,1-.169-.834c-.012-.08-.027-.157-.036-.238A8.349,8.349,0,0,1,18,11.625a8.588,8.588,0,0,1,.1-1.241c.013-.084.023-.168.038-.252a8.471,8.471,0,0,1,.293-1.169c.018-.054.039-.106.058-.159A8.5,8.5,0,0,1,19.738,6.5c.05-.066.1-.135.149-.2l.065-.084a8.485,8.485,0,0,1,13.1,0ZM8.438,13.75a7.446,7.446,0,0,1,7.438-7.438,7.273,7.273,0,0,1,1.357.129l-.01.02A10.65,10.65,0,0,0,16.671,7.6c-.034.082-.06.166-.091.249a10.406,10.406,0,0,0-.4,1.3c-.066.277-.119.559-.164.844-.02.129-.044.256-.059.387a9.95,9.95,0,0,0-.011,2.41c.01.083.027.163.037.244.041.31.094.617.16.918.017.076.039.151.058.226.077.308.165.612.268.91.022.065.047.128.07.192q.171.462.381.9l.074.154q.233.467.508.906l.058.1a10.712,10.712,0,0,0,2.336,2.59l.044.039a7.432,7.432,0,0,1-11.5-6.224ZM3.125,45.625V35a11.7,11.7,0,0,1,11.37-11.683,13.966,13.966,0,0,0-1.056.981c-.074.075-.141.157-.214.235q-.386.41-.737.851c-.08.1-.154.206-.232.31a13.561,13.561,0,0,0-.813,1.214q-.274.461-.511.942c-.056.115-.113.228-.167.344-.152.329-.288.667-.413,1.01-.043.117-.088.231-.128.348-.117.35-.216.705-.306,1.067-.03.119-.065.236-.091.356q-.119.56-.191,1.127c-.016.115-.039.226-.052.342A13.822,13.822,0,0,0,9.5,33.938V45.625Z" transform="translate(-1 -1)"/>
</svg>
