<svg xmlns="http://www.w3.org/2000/svg" width="34.903" height="50.998" viewBox="0 0 34.903 50.998">
  <defs>
    <style>
      .cls-1 {
        fill: #f58935;
      }
    </style>
  </defs>
  <g id="Group_3329" data-name="Group 3329" transform="translate(-29.5 -20.968)">
    <path id="Path_2189" data-name="Path 2189" class="cls-1" d="M48.007,37.856a1.417,1.417,0,0,0,1.415-1.415.472.472,0,1,0-.943,0,.472.472,0,1,1-.943,0,.472.472,0,1,0-.943,0A1.417,1.417,0,0,0,48.007,37.856Z" transform="translate(-0.969 -0.85)"/>
    <path id="Path_2190" data-name="Path 2190" class="cls-1" d="M47.556,42.912H48.5a.472.472,0,1,0,0-.943h-.943a.472.472,0,1,0,0,.943Z" transform="translate(-0.997 -1.19)"/>
    <path id="Path_2191" data-name="Path 2191" class="cls-1" d="M51.027,39.8a.472.472,0,0,0-.6-.725,4.375,4.375,0,0,1-5.056,0,.473.473,0,0,0-.6.725,5.155,5.155,0,0,0,6.264,0Z" transform="translate(-0.856 -1.02)"/>
    <circle id="Ellipse_390" data-name="Ellipse 390" class="cls-1" cx="0.472" cy="0.472" r="0.472" transform="translate(43.263 31.815)"/>
    <circle id="Ellipse_391" data-name="Ellipse 391" class="cls-1" cx="0.472" cy="0.472" r="0.472" transform="translate(49.866 31.815)"/>
    <path id="Path_2192" data-name="Path 2192" class="cls-1" d="M54.5,48.384H52.819l-2.148-2.147a.465.465,0,0,0-.421-.122V44.171a7.082,7.082,0,0,0,4.805-6.695V36.061h.452a1.417,1.417,0,0,0,1.415-1.415v-2.83A1.417,1.417,0,0,0,55.507,30.4h-.452v-1.03A1.412,1.412,0,0,0,56,28.043v-2.83a2.361,2.361,0,0,0-2.358-2.358H43.264a1.417,1.417,0,0,1-1.415-1.415.472.472,0,0,0-.472-.472,3.305,3.305,0,0,0-3.3,3.3v3.773a1.412,1.412,0,0,0,.943,1.328V30.4h-.472a1.417,1.417,0,0,0-1.415,1.415v2.83a1.417,1.417,0,0,0,1.415,1.415h.472v1.415a7.08,7.08,0,0,0,4.628,6.63v2.083a.457.457,0,0,0-.274.122l-2.09,2.09a.481.481,0,0,0-.091-.018H39.4a9.916,9.916,0,0,0-9.9,9.9V71.494a.472.472,0,0,0,.472.472h33.96a.472.472,0,0,0,.472-.472V58.288A9.916,9.916,0,0,0,54.5,48.384ZM39.02,35.119h-.472a.472.472,0,0,1-.472-.472v-2.83a.472.472,0,0,1,.472-.472h.472ZM50.338,47.237l1.57,1.569-2.687,2.688-.451-.451A.45.45,0,0,0,48.741,51l-1.082-1.082,2.679-2.679Zm-4.367,20.2-.634-.845,3.637-3.636.154,1.177Zm3.313-2.1.045.347L46.992,68.8l-.447-.6,2.739-2.868Zm-.575-3.447-3.943,3.943-.111-.148.215-1.647c.008-.008.02-.01.028-.019l3.727-3.727.2,1.522a.453.453,0,0,0-.115.076Zm-3.639.624.258-1.97a.407.407,0,0,0,.059-.04l2.89-2.89.2,1.5Zm2.664-11.177-.741.74-.748-.748.741-.741Zm-3.15-4.486c0-.011.007-.022.007-.033V44.387a7.055,7.055,0,0,0,1.5.164h1.887a7.065,7.065,0,0,0,1.326-.129v2.51l-2.322,2.322Zm1.759,5.911.316.316a.47.47,0,0,0,.668,0l.316-.316.1.8L46.012,55.3ZM47.9,54.748l.221,1.689-2.6,2.6.287-2.2,2.09-2.09ZM54.113,30.4H51.578a.421.421,0,0,0-.1.02,1.92,1.92,0,0,0-.2-.02H49.4a1.884,1.884,0,0,0-1.709,1.1,1.413,1.413,0,0,0-.643-.171,1.4,1.4,0,0,0-.649.18A1.886,1.886,0,0,0,44.681,30.4H39.964V29.46h14.15V30.4Zm-1.887,1.887a.944.944,0,0,1-.943.943H49.4a.944.944,0,0,1,0-1.887h1.887A.944.944,0,0,1,52.227,32.289Zm-6.6,0a.944.944,0,0,1-.943.943H42.793a.944.944,0,0,1,0-1.887H44.68A.944.944,0,0,1,45.623,32.289Zm9.885-.943a.472.472,0,0,1,.472.472v2.83a.472.472,0,0,1-.472.472h-.452V31.346Zm-16.488-3.3V24.271a2.362,2.362,0,0,1,1.942-2.322,2.362,2.362,0,0,0,2.3,1.85H53.642a1.417,1.417,0,0,1,1.415,1.415v2.83a.472.472,0,0,1-.472.472H39.492A.472.472,0,0,1,39.02,28.044Zm.943,9.433V31.346h1.206a1.866,1.866,0,0,0-.262.943,1.889,1.889,0,0,0,1.887,1.887H44.68a1.883,1.883,0,0,0,1.814-1.4.478.478,0,0,0,.037-.073.525.525,0,0,1,1.026,0s0,0,.006.008a1.887,1.887,0,0,0,1.834,1.46h1.887a1.889,1.889,0,0,0,1.887-1.887,1.866,1.866,0,0,0-.262-.943h1.206v6.132a6.139,6.139,0,0,1-6.132,6.132H46.095A6.139,6.139,0,0,1,39.963,37.477Zm3.745,9.835,2.611,2.612L45.244,51h0l-.493.493-2.612-2.612ZM63.46,71.024H56.848c0-.015.008-.027.008-.042V57.345a.472.472,0,1,0-.943,0V70.981c0,.015.008.027.008.042H37.038c0-.015.008-.027.008-.042V57.345a.472.472,0,0,0-.943,0V70.981c0,.015.008.027.008.042H30.443V58.289A8.972,8.972,0,0,1,39.4,49.327h1.789a.378.378,0,0,0,.047-.009l3.176,3.176a.472.472,0,0,0,.668,0l.4-.4L43.7,65.754a.467.467,0,0,0,.091.343l2.83,3.773a.472.472,0,0,0,.755,0L50.2,66.1a.467.467,0,0,0,.091-.343l-1.784-13.64.379.379a.472.472,0,0,0,.668,0l3.166-3.166H54.5A8.972,8.972,0,0,1,63.46,58.29Z" transform="translate(0 0)"/>
  </g>
</svg>
