<svg xmlns="http://www.w3.org/2000/svg" width="56.855" height="50.996" viewBox="0 0 56.855 50.996">
  <defs>
    <style>
      .cls-1 {
        fill: #f58935;
      }
    </style>
  </defs>
  <g id="Group_3438" data-name="Group 3438" transform="translate(-5.18 -9.797)">
    <path id="Path_2165" data-name="Path 2165" class="cls-1" d="M37.273,37.765a.634.634,0,0,0,.634.438.71.71,0,0,0,.2,0,.634.634,0,0,0,.387-.831l-1.484-4.585a.634.634,0,1,0-1.2.387ZM40.5,36.719a.634.634,0,0,0,.6.438.748.748,0,0,0,.2-.032.634.634,0,0,0,.406-.8l-1.484-4.578a.633.633,0,0,0-1.2.387ZM13.685,47.4a1.9,1.9,0,1,0-1.9,1.9A1.9,1.9,0,0,0,13.685,47.4Zm-2.536,0a.264.264,0,1,1-.013,0Zm5.586,1.909a1.9,1.9,0,1,0-1.9-1.9,1.9,1.9,0,0,0,1.9,1.9Zm0-2.536a.264.264,0,1,1,0-.013Zm4.952,2.536a1.9,1.9,0,1,0-1.9-1.9,1.9,1.9,0,0,0,1.9,1.9Zm0-2.536a.264.264,0,1,1,0-.013Z" transform="translate(-1.72 -7.872)"/>
    <path id="Path_2166" data-name="Path 2166" class="cls-1" d="M59.814,23.667a4.014,4.014,0,0,0-2.441-7.552l-1.9-5.891a.593.593,0,0,0-.945-.3L40.011,19.9,34.38,21.72a4.838,4.838,0,0,0-.634.266H9.061a.634.634,0,0,0-.634.634V33.6H5.814a.634.634,0,0,0-.634.634V45.156a.634.634,0,0,0,.634.634H8.427v8.1H7.7a2.632,2.632,0,0,0-2.162,1,1.725,1.725,0,0,0-.254,1.579l.533,1.6c.514,1.6,2.416,2.714,4.508,2.714H52.851a4.605,4.605,0,0,0,4.508-2.714l.533-1.6a1.706,1.706,0,0,0-.254-1.579,2.632,2.632,0,0,0-2.162-1h-.723V30.54l6.379-.133a.63.63,0,0,0,.59-.831Zm.8-4.439a2.758,2.758,0,0,1-1.186,3.209l-1.661-5.073a2.746,2.746,0,0,1,2.847,1.877ZM32.332,25.861a3.564,3.564,0,0,1,1.826-2.682,3.209,3.209,0,0,1,.583-.247l5.124-1.661,2.67,8.243.076.228L37.481,31.4a3.526,3.526,0,0,1-4.439-2.251l-.571-1.788a3.361,3.361,0,0,1-.14-1.008,4.129,4.129,0,0,1,0-.488Zm10.78,5.073,2.98,5.783-2,.634-2.974-5.783Zm-10.558-.082.076.1a5.257,5.257,0,0,0,.393.45l.07.076a4.483,4.483,0,0,0,.495.412l.12.082a4.133,4.133,0,0,0,.552.336h.051a4.818,4.818,0,0,0,.564.235l.14.044a5.124,5.124,0,0,0,.634.152h.133c.2,0,.393.038.6.044h.089a5.432,5.432,0,0,0,.634-.044h.152a4.977,4.977,0,0,0,.634-.159l1.985-.634,3.323,6.449a.8.8,0,0,0,.755.342l3.228-1.046a.663.663,0,0,0,.393-.894l-3.094-6.024,5.269-.108V53.894h-36.3v-8.1h2.612L20.145,49.7a.837.837,0,0,0,.184.12h.063a.634.634,0,0,0,.152,0h.038a.742.742,0,0,0,.235-.051.634.634,0,0,0,.374-.634l-.108-3.424H23.67a.634.634,0,0,0,.634-.634V34.231a.634.634,0,0,0-.634-.634H13.449V27H31.115a4.609,4.609,0,0,0,.171.723l.571,1.788a5.251,5.251,0,0,0,.273.634l.063.133A5.51,5.51,0,0,0,32.554,30.851ZM44.1,55.169v1.541H19.086V55.169ZM9.695,23.242H32.142a.114.114,0,0,0-.032.044,1.083,1.083,0,0,0-.07.089c-.1.133-.19.266-.279.406l-.063.1a4.731,4.731,0,0,0-.254.507.85.85,0,0,1-.044.114,5.021,5.021,0,0,0-.165.495v.07a5.555,5.555,0,0,0-.114.564.432.432,0,0,1,0,.089H12.815a.634.634,0,0,0-.634.634V33.6H9.695ZM6.448,44.522V34.865H23.062v9.657H20.455a.634.634,0,0,0-.634.634l.082,2.536-3.17-3.012a.634.634,0,0,0-.438-.171H6.448Zm5.707,1.268v8.1H9.695v-8.1Zm43.322,9.372a1.427,1.427,0,0,1,1.135.476.482.482,0,0,1,.082.438l-.539,1.6a3.385,3.385,0,0,1-3.3,1.852H10.329a3.385,3.385,0,0,1-3.3-1.852l-.533-1.6a.463.463,0,0,1,.076-.438A1.427,1.427,0,0,1,7.7,55.162H17.849v2.175a.634.634,0,0,0,.634.634H44.735a.634.634,0,0,0,.634-.634V55.169H55.477ZM51,53.894V30.623l2.486-.051V53.894ZM44.659,29.488h-.786l-.634-2.042-2.194-6.74,13.481-9.283,1.826,5.637h0l.374,1.16,3.507,10.938Z" transform="translate(0 0)"/>
    <path id="Path_2167" data-name="Path 2167" class="cls-1" d="M37.047,53.855a.634.634,0,0,0-.355,1.078l4.261,4.153-1,5.865a.634.634,0,0,0,.919.634l5.263-2.765,5.269,2.8a.634.634,0,0,0,.3.076.672.672,0,0,0,.374-.12.634.634,0,0,0,.247-.634l-1-5.865,4.261-4.153a.634.634,0,0,0-.355-1.078l-5.884-.856L46.71,47.654a.634.634,0,0,0-1.141,0l-2.632,5.333Zm6.874,0,2.213-4.483,2.213,4.483a.634.634,0,0,0,.476.342l4.946.723-3.583,3.488a.634.634,0,0,0-.178.558l.843,4.927-4.439-2.327a.634.634,0,0,0-.292-.07.71.71,0,0,0-.3.07l-4.439,2.327.843-4.927a.634.634,0,0,0-.184-.558L38.467,54.92l4.946-.723a.634.634,0,0,0,.507-.336Z" transform="translate(-11.461 -13.721)"/>
  </g>
</svg>
