<svg xmlns="http://www.w3.org/2000/svg" width="62.117" height="50.998" viewBox="0 0 62.117 50.998">
  <defs>
    <style>
      .cls-1 {
        fill: #f58935;
      }
    </style>
  </defs>
  <path id="Path_2145" data-name="Path 2145" class="cls-1" d="M61.207,71.9h-2.73V40.209a4.555,4.555,0,0,0-4.55-4.55H45.375V34.55A4.555,4.555,0,0,0,40.825,30H21.292a4.555,4.555,0,0,0-4.55,4.55v1.11H8.189a4.555,4.555,0,0,0-4.55,4.55V71.9H.91a.91.91,0,0,0-.91.91A8.2,8.2,0,0,0,8.189,81H53.928a8.2,8.2,0,0,0,8.189-8.189.91.91,0,0,0-.91-.91ZM45.375,41.119h7.643v27.14H45.375ZM18.562,34.55a2.733,2.733,0,0,1,2.73-2.73H40.825a2.733,2.733,0,0,1,2.73,2.73v33.71H18.562Zm-13.1,5.659a2.733,2.733,0,0,1,2.73-2.73h8.553V39.3H8.189a.91.91,0,0,0-.91.91v28.96a.91.91,0,0,0,.91.91H53.928a.91.91,0,0,0,.91-.91V40.209a.91.91,0,0,0-.91-.91H45.375v-1.82h8.553a2.733,2.733,0,0,1,2.73,2.73V71.9H5.459Zm11.283.91v27.14H9.1V41.119Zm18.432,32.6-.917,1.835h-6.4l-.917-1.835Zm18.753,5.46H8.189a6.379,6.379,0,0,1-6.3-5.46H24.908l1.576,3.152a.91.91,0,0,0,.814.5h7.522a.91.91,0,0,0,.814-.5l1.576-3.152H60.232a6.379,6.379,0,0,1-6.3,5.46ZM24.022,50.825h4.246a.91.91,0,0,0,.91-.91V45.669a.91.91,0,0,0-.91-.91H24.022a.91.91,0,0,0-.91.91v4.246a.91.91,0,0,0,.91.91Zm.91-4.246h2.426V49H24.932Zm-.425-5.46h13.1a1.4,1.4,0,0,0,1.4-1.4V37.055a1.4,1.4,0,0,0-1.4-1.4h-13.1a1.4,1.4,0,0,0-1.4,1.4v2.669a1.4,1.4,0,0,0,1.4,1.4Zm.425-3.64H37.185V39.3H24.932ZM39.672,49H31.908a.91.91,0,0,0,0,1.82h7.765a.91.91,0,1,0,0-1.82Zm0,5.459H31.908a.91.91,0,0,0,0,1.82h7.765a.91.91,0,1,0,0-1.82Zm0-9.706H31.908a.91.91,0,0,0,0,1.82h7.765a.91.91,0,1,0,0-1.82ZM24.022,60.53h4.246a.91.91,0,0,0,.91-.91V55.374a.91.91,0,0,0-.91-.91H24.022a.91.91,0,0,0-.91.91v4.246a.91.91,0,0,0,.91.91Zm.91-4.246h2.426v2.426H24.932ZM39.672,64.17H24.022a.91.91,0,0,0,0,1.82H39.672a.91.91,0,1,0,0-1.82Zm0-5.46H31.908a.91.91,0,0,0,0,1.82h7.765a.91.91,0,0,0,0-1.82Z" transform="translate(0 -30)"/>
</svg>
