<svg xmlns="http://www.w3.org/2000/svg" width="52.068" height="52.068" viewBox="0 0 52.068 52.068">
  <defs>
    <style>
      .cls-1 {
        fill: #f58935;
      }
    </style>
  </defs>
  <path id="Path_1" data-name="Path 1" class="cls-1" d="M74.034,48a26.034,26.034,0,1,0,26.034,26.034A26.03,26.03,0,0,0,74.034,48Zm0,49.9a23.831,23.831,0,0,1-18.286-8.549c2.228-.964,7.785-2.966,11.3-3.993.275-.088.325-.1.325-1.339a6.992,6.992,0,0,0-.476-2.954,15,15,0,0,1-1.152-3.955A8.93,8.93,0,0,1,64.046,73a5.493,5.493,0,0,1,.05-3.455,1.585,1.585,0,0,0,.075-.225,22.553,22.553,0,0,0-.388-4.856,8.9,8.9,0,0,1,1.877-6.421,9.531,9.531,0,0,1,7.259-3.5h2.19a9.567,9.567,0,0,1,7.322,3.5A8.824,8.824,0,0,1,84.3,64.459a22.507,22.507,0,0,0-.388,4.856,1.065,1.065,0,0,0,.075.213,5.4,5.4,0,0,1,.05,3.455,8.93,8.93,0,0,1-1.7,4.118,15.148,15.148,0,0,1-1.152,3.955,7.014,7.014,0,0,0-.826,2.916c0,1.239.05,1.252.338,1.339,3.342.989,9.1,2.979,11.64,4.018A23.819,23.819,0,0,1,74.034,97.9Z" transform="translate(-48 -48)"/>
</svg>
