<svg xmlns="http://www.w3.org/2000/svg" width="50.996" height="50.996" viewBox="0 0 50.996 50.996">
  <defs>
    <style>
      .cls-1 {
        fill: #f58935;
        fill-rule: evenodd;
      }
    </style>
  </defs>
  <path id="Path_2318" data-name="Path 2318" class="cls-1" d="M5.373.266A5.129,5.129,0,0,0,.264,5.359v40.8a5.141,5.141,0,0,0,5.11,5.106H46.167a5.126,5.126,0,0,0,5.093-5.106V5.359A5.115,5.115,0,0,0,46.167.266Zm0,3.386H46.167a1.671,1.671,0,0,1,1.707,1.707v8.5h-32.3a1.7,1.7,0,1,0,0,3.4h32.3v28.9a1.671,1.671,0,0,1-1.707,1.706H5.373a1.674,1.674,0,0,1-1.71-1.706v-28.9H8.77a1.7,1.7,0,1,0,0-3.4H3.663v-8.5A1.674,1.674,0,0,1,5.373,3.652Zm3.4,3.406a1.7,1.7,0,1,0,1.7,1.7A1.7,1.7,0,0,0,8.77,7.058Zm6.8,0a1.7,1.7,0,1,0,1.7,1.7A1.7,1.7,0,0,0,15.569,7.058Zm6.8,0a1.7,1.7,0,1,0,1.7,1.7A1.7,1.7,0,0,0,22.368,7.058Zm-6.8,17a1.7,1.7,0,1,0,0,3.4H35.964a1.7,1.7,0,1,0,0-3.4Zm-.176,6.8a1.7,1.7,0,0,0,.176,3.4H35.964a1.7,1.7,0,1,0,0-3.4H15.572a1.7,1.7,0,0,0-.176,0Zm0,6.8a1.7,1.7,0,0,0,.176,3.4H25.762a1.7,1.7,0,1,0,0-3.4H15.572A1.7,1.7,0,0,0,15.4,37.66Z" transform="translate(-0.264 -0.266)"/>
</svg>
