<svg xmlns="http://www.w3.org/2000/svg" width="50.993" height="50.996" viewBox="0 0 50.993 50.996">
  <defs>
    <style>
      .cls-1 {
        fill: #f58935;
      }
    </style>
  </defs>
  <g id="Group_3439" data-name="Group 3439" transform="translate(-5.006 -5)">
    <path id="Path_2170" data-name="Path 2170" class="cls-1" d="M6.519,30.605a46.448,46.448,0,0,0,9.926,13.949C23.7,51.812,31.416,56,36.735,56a6.432,6.432,0,0,0,4.717-1.718l5.056-5.056a2.556,2.556,0,0,0,0-3.616l-8.041-8.041a2.618,2.618,0,0,0-3.616,0l-2.6,2.6h-.017c-.97,0-4.271-1.686-6.991-4.408-2.737-2.736-4.427-6.06-4.408-7.008l2.6-2.6a2.555,2.555,0,0,0,0-3.616l-8.041-8.042a2.619,2.619,0,0,0-3.616,0L6.721,19.547C4.506,21.762,4.435,25.689,6.519,30.605Zm2.263-9,4.8-4.8,7.536,7.536-2.47,2.47c-1.086,1.086-.942,2.943.43,5.516a24.03,24.03,0,0,0,9.59,9.59c2.575,1.371,4.43,1.515,5.516.43l2.47-2.47,7.537,7.536-4.8,4.8c-2.642,2.639-11.868-.7-20.887-9.724A43.531,43.531,0,0,1,9.2,29.468C7.658,25.827,7.5,22.888,8.781,21.608ZM56,21.756V9.371A4.376,4.376,0,0,0,51.628,5H30.5a4.376,4.376,0,0,0-4.371,4.371V21.756A4.376,4.376,0,0,0,30.5,26.128h2.426v5.1a1.457,1.457,0,0,0,2.432,1.083l6.87-6.183h9.4A4.376,4.376,0,0,0,56,21.756Zm-14.33,1.457a1.46,1.46,0,0,0-.975.374l-4.854,4.369V24.67a1.457,1.457,0,0,0-1.457-1.457H30.5a1.459,1.459,0,0,1-1.457-1.457V9.371A1.459,1.459,0,0,1,30.5,7.914H51.628a1.459,1.459,0,0,1,1.457,1.457V21.756a1.459,1.459,0,0,1-1.457,1.457Z" transform="translate(0 0)"/>
    <path id="Path_2171" data-name="Path 2171" class="cls-1" d="M41.688,17h2.778v2.914H41.688Zm7.945,0h2.778v2.914H49.633Zm7.945,0h2.778v2.914H57.579Z" transform="translate(-9.958 -3.258)"/>
  </g>
</svg>
