<svg id="Group_6" data-name="Group 6" xmlns="http://www.w3.org/2000/svg" width="50.998" height="50.998" viewBox="0 0 50.998 50.998">
  <defs>
    <style>
      .cls-1 {
        fill: none;
      }

      .cls-2 {
        fill: #f58935;
      }
    </style>
  </defs>
  <path id="Path_16" data-name="Path 16" class="cls-1" d="M0,0H51V51H0Z"/>
  <path id="Path_17" data-name="Path 17" class="cls-2" d="M45.623,42.436H4.187A3.191,3.191,0,0,1,1,39.249V4.187A3.191,3.191,0,0,1,4.187,1H45.623a3.191,3.191,0,0,1,3.187,3.187V39.249A3.191,3.191,0,0,1,45.623,42.436ZM4.187,4.187V39.249H45.626l0-35.061ZM31.28,48.811H18.531a1.594,1.594,0,0,1,0-3.187H31.28a1.594,1.594,0,0,1,0,3.187Z" transform="translate(0.594 0.594)"/>
  <path id="Path_18" data-name="Path 18" class="cls-2" d="M21.343,41.687a1.594,1.594,0,0,1-1.594-1.594V33.719a1.594,1.594,0,1,1,3.187,0v6.375A1.594,1.594,0,0,1,21.343,41.687Zm0-25.5a1.586,1.586,0,0,1-.606-.127,1.84,1.84,0,0,1-.526-.335,1.578,1.578,0,0,1-.335-1.737,1.84,1.84,0,0,1,.335-.526,1.594,1.594,0,0,1,1.433-.432.964.964,0,0,1,.3.1.886.886,0,0,1,.271.143,1.522,1.522,0,0,1,.255.191,1.84,1.84,0,0,1,.335.526,1.571,1.571,0,0,1-.333,1.737,1.862,1.862,0,0,1-.526.335,1.586,1.586,0,0,1-.606.127Zm6.375,0a1.586,1.586,0,0,1-.606-.127,1.645,1.645,0,0,1-.526-.335,1.578,1.578,0,0,1-.462-1.132,1.336,1.336,0,0,1,.127-.606,1.645,1.645,0,0,1,.335-.526,2.715,2.715,0,0,1,.237-.191,1.216,1.216,0,0,1,.288-.143,1.011,1.011,0,0,1,.3-.1,1.592,1.592,0,0,1,1.434.432,1.645,1.645,0,0,1,.335.526,1.559,1.559,0,0,1,.129.606,1.586,1.586,0,0,1-.127.606,1.437,1.437,0,0,1-.861.861A1.586,1.586,0,0,1,27.718,16.188Zm6.375,0a1.6,1.6,0,0,1-.606-.112,2.328,2.328,0,0,1-.526-.351,1.962,1.962,0,0,1-.352-.526,1.6,1.6,0,0,1,2.615-1.737l.191.237a1.28,1.28,0,0,1,.143.288,1.013,1.013,0,0,1,.1.287,2.37,2.37,0,0,1,.032.319,1.611,1.611,0,0,1-.462,1.132,2.364,2.364,0,0,1-.526.351,1.6,1.6,0,0,1-.606.112Zm-25.5,0a1.654,1.654,0,0,1-1.132-.478,2,2,0,0,1-.352-.51A1.6,1.6,0,0,1,7,14.595a1.336,1.336,0,0,1,.127-.606,1.84,1.84,0,0,1,.335-.526,1.645,1.645,0,0,1,.526-.335,1.512,1.512,0,0,1,.924-.1,1.036,1.036,0,0,1,.287.1,1.207,1.207,0,0,1,.287.143,2.325,2.325,0,0,1,.239.191,1.84,1.84,0,0,1,.335.526,1.6,1.6,0,0,1-.335,1.72,1.617,1.617,0,0,1-.526.351A1.586,1.586,0,0,1,8.594,16.188Zm6.375,0a1.586,1.586,0,0,1-.606-.127,1.645,1.645,0,0,1-.526-.335A1.862,1.862,0,0,1,13.5,15.2a1.5,1.5,0,0,1,0-1.211,1.84,1.84,0,0,1,.335-.526,1.591,1.591,0,0,1,1.737-.335,1.862,1.862,0,0,1,.526.335,1.84,1.84,0,0,1,.335.526,1.578,1.578,0,0,1-1.466,2.2Z" transform="translate(4.156 7.717)"/>
</svg>
