<svg xmlns="http://www.w3.org/2000/svg" width="51" height="51" viewBox="0 0 51 51">
  <defs>
    <style>
      .cls-1 {
        fill: #f58935;
      }
    </style>
  </defs>
  <path id="Path_2" data-name="Path 2" class="cls-1" d="M18.583,3h-8.5a7.083,7.083,0,0,0,0,14.167h8.5A7.083,7.083,0,0,0,18.583,3Zm0,11.333h-8.5a4.25,4.25,0,1,1,0-8.5h8.5a4.25,4.25,0,0,1,0,8.5Zm0,8.5h-8.5A7.083,7.083,0,0,0,3,29.917v17A7.083,7.083,0,0,0,10.083,54h8.5a7.083,7.083,0,0,0,7.083-7.083v-17A7.083,7.083,0,0,0,18.583,22.833Zm4.25,24.083a4.25,4.25,0,0,1-4.25,4.25h-8.5a4.25,4.25,0,0,1-4.25-4.25v-17a4.25,4.25,0,0,1,4.25-4.25h8.5a4.25,4.25,0,0,1,4.25,4.25Zm24.083-7.083h-8.5a7.083,7.083,0,0,0,0,14.167h8.5a7.083,7.083,0,1,0,0-14.167Zm0,11.333h-8.5a4.25,4.25,0,0,1,0-8.5h8.5a4.25,4.25,0,1,1,0,8.5ZM46.917,3h-8.5a7.083,7.083,0,0,0-7.083,7.083v17a7.083,7.083,0,0,0,7.083,7.083h8.5A7.083,7.083,0,0,0,54,27.083v-17A7.083,7.083,0,0,0,46.917,3Zm4.25,24.083a4.25,4.25,0,0,1-4.25,4.25h-8.5a4.25,4.25,0,0,1-4.25-4.25v-17a4.25,4.25,0,0,1,4.25-4.25h8.5a4.25,4.25,0,0,1,4.25,4.25Z" transform="translate(-3 -3)"/>
</svg>
