<svg xmlns="http://www.w3.org/2000/svg" width="62.117" height="44.263" viewBox="0 0 62.117 44.263">
  <defs>
    <style>
      .cls-1 {
        fill: #f58935;
      }
    </style>
  </defs>
  <g id="Group_3441" data-name="Group 3441" transform="translate(-2.08 -10.68)">
    <path id="Path_2313" data-name="Path 2313" class="cls-1" d="M55.374,54.943H10.9A8.834,8.834,0,0,1,2.08,46.119V19.5A8.834,8.834,0,0,1,10.9,10.68h44.47A8.834,8.834,0,0,1,64.2,19.5V46.119a8.834,8.834,0,0,1-8.823,8.823ZM10.9,13.794A5.709,5.709,0,0,0,5.194,19.5V46.119A5.709,5.709,0,0,0,10.9,51.828h44.47a5.709,5.709,0,0,0,5.709-5.709V19.5a5.709,5.709,0,0,0-5.709-5.709Z" transform="translate(0)"/>
    <path id="Path_2314" data-name="Path 2314" class="cls-1" d="M33.108,38.921a8.834,8.834,0,0,1-5.325-1.775L3.544,18.814a1.557,1.557,0,1,1,1.879-2.481L29.662,34.686a5.761,5.761,0,0,0,6.893,0L60.793,16.333a1.557,1.557,0,1,1,1.879,2.481L38.433,37.146a8.834,8.834,0,0,1-5.325,1.775Z" transform="translate(0.031 0.202)"/>
    <path id="Path_2315" data-name="Path 2315" class="cls-1" d="M4.227,49.879a1.557,1.557,0,0,1-1.038-2.72l19.1-17.034a1.559,1.559,0,0,1,2.076,2.325L5.265,49.484a1.516,1.516,0,0,1-1.038.394Zm57.778,0a1.516,1.516,0,0,1-1.038-.394L41.867,32.45a1.559,1.559,0,1,1,2.076-2.325l19.09,17.034a1.557,1.557,0,0,1-1.038,2.72Z" transform="translate(0.022 0.725)"/>
  </g>
</svg>
