<svg xmlns="http://www.w3.org/2000/svg" width="57.3" height="50.998" viewBox="0 0 57.3 50.998">
  <defs>
    <style>
      .cls-1 {
        fill: #f58935;
        fill-rule: evenodd;
      }
    </style>
  </defs>
  <g id="Page-1" transform="translate(-0.524 -0.743)">
    <g id="Artboard" transform="translate(0.524 0.743)">
      <g id="message-question" transform="translate(0 0)">
        <path id="Shape" class="cls-1" d="M53.527.743H4.821a4.406,4.406,0,0,0-4.3,4.3V37.129a4.406,4.406,0,0,0,4.3,4.3h.287a1.354,1.354,0,0,1,1.433,1.433v4.584a4.6,4.6,0,0,0,1.433,3.151,4.1,4.1,0,0,0,2.864,1.147A4.375,4.375,0,0,0,13.7,50.594L22.3,42c.286-.287.573-.573.859-.573h30.37a4.406,4.406,0,0,0,4.3-4.3V5.04a4.406,4.406,0,0,0-4.3-4.3ZM54.96,37.129a1.353,1.353,0,0,1-1.433,1.432H23.444a6.006,6.006,0,0,0-3.152,1.147L11.7,48.3a1.2,1.2,0,0,1-2.006,0c-.287-.286-.287-.573-.287-1.146V42.572a4.406,4.406,0,0,0-4.3-4.3H4.821a1.354,1.354,0,0,1-1.433-1.433V5.04A1.354,1.354,0,0,1,4.821,3.607H53.527A1.354,1.354,0,0,1,54.96,5.04V37.129Z" transform="translate(-0.524 -0.743)"/>
        <path id="Shape-2" data-name="Shape" class="cls-1" d="M36.633,18.646a6.452,6.452,0,0,1-4.584,6.017v1.146a1.433,1.433,0,0,1-2.865,0V23.229A1.353,1.353,0,0,1,30.617,21.8a3.152,3.152,0,1,0-3.151-3.151,1.433,1.433,0,0,1-2.865,0,6.017,6.017,0,1,1,12.033,0Z" transform="translate(-1.966 -1.455)"/>
        <path id="Shape-3" data-name="Shape" class="cls-1" d="M30.909,34.048a1.354,1.354,0,0,1-1.433-1.433v-.573a1.433,1.433,0,0,1,2.865,0v.573a1.354,1.354,0,0,1-1.433,1.433Z" transform="translate(-2.258 -2.532)"/>
      </g>
    </g>
  </g>
</svg>
