<svg id="Group_3291" data-name="Group 3291" xmlns="http://www.w3.org/2000/svg" width="52.996" height="52.996" viewBox="0 0 52.996 52.996">
  <defs>
    <style>
      .cls-1 {
        fill: none;
        stroke: #f58935;
        stroke-width: 2px;
      }
    </style>
  </defs>
  <rect id="Rectangle_1518" data-name="Rectangle 1518" class="cls-1" width="50.996" height="50.996" rx="24.78" transform="translate(1 1)"/>
  <path id="Path_2139" data-name="Path 2139" class="cls-1" d="M41.29,24.215a3.087,3.087,0,0,0-1.78-2.8,3.6,3.6,0,0,1-1.7-1.965l-.062-.165a3.807,3.807,0,0,1-.113-2.634,3.087,3.087,0,0,0-3.869-3.869,3.807,3.807,0,0,1-2.634-.113l-.165-.072A3.54,3.54,0,0,1,29,10.91a3.087,3.087,0,0,0-5.6,0A3.56,3.56,0,0,1,21.451,12.6l-.175.072a3.807,3.807,0,0,1-2.634.113,3.087,3.087,0,0,0-3.869,3.869,3.807,3.807,0,0,1-.1,2.634,1.142,1.142,0,0,0-.072.165,3.6,3.6,0,0,1-1.7,1.965,3.087,3.087,0,0,0,0,5.6,3.581,3.581,0,0,1,1.7,1.955,1.255,1.255,0,0,0,.072.175,3.8,3.8,0,0,1,.062,2.593A3.087,3.087,0,0,0,18.6,35.606a3.745,3.745,0,0,1,2.634.1l.175.072a3.571,3.571,0,0,1,1.955,1.7,3.087,3.087,0,0,0,5.6,0,3.56,3.56,0,0,1,1.965-1.7l.165-.072a3.745,3.745,0,0,1,2.634-.1A3.087,3.087,0,0,0,37.6,31.737a3.807,3.807,0,0,1,.113-2.634l.062-.175a3.581,3.581,0,0,1,1.7-1.955,3.087,3.087,0,0,0,1.821-2.758Z" transform="translate(0.293 0.235)"/>
  <path id="Path_2140" data-name="Path 2140" class="cls-1" d="M20.52,23.943,24.1,27.514l7.244-7.244" transform="translate(0.566 0.558)"/>
  <path id="Path_2141" data-name="Path 2141" class="cls-1" d="M16.285,34.72l-2.963,5.536a.442.442,0,0,0,.484.638l4.178-.864a.442.442,0,0,1,.473.206l1.317,2.181a.442.442,0,0,0,.772,0l2.809-5.587M35.64,34.874l2.881,5.392a.442.442,0,0,1-.484.638L33.86,40.04a.442.442,0,0,0-.473.206l-1.317,2.181a.442.442,0,0,1-.772,0l-2.6-5.145" transform="translate(0.356 0.977)"/>
</svg>
