<svg xmlns="http://www.w3.org/2000/svg" width="45.896" height="50.996" viewBox="0 0 45.896 50.996">
  <defs>
    <style>
      .cls-1 {
        fill: #f58935;
      }
    </style>
  </defs>
  <path id="Path_2312" data-name="Path 2312" class="cls-1" d="M25.948,1A20.277,20.277,0,0,0,15.854,3.657a20.036,20.036,0,0,0-10.092,17c0,.187,0,.8,0,1.54v.69H3.85a.86.86,0,0,0-.16,0,.879.879,0,0,0-.69.85v7.332a.884.884,0,0,0,.85.85H6.612a3.67,3.67,0,0,0,2.657-.957,3.011,3.011,0,0,0,.637-.9h1.326A2.65,2.65,0,0,0,13.889,27.4a2.694,2.694,0,0,0-2.655-2.708H9.8a3.09,3.09,0,0,0-.532-.85,3.4,3.4,0,0,0-1.805-.9V20.656A18.266,18.266,0,0,1,16.706,5.143a18.619,18.619,0,0,1,18.484,0,18.33,18.33,0,0,1,9.244,15.3c0,.109,0,.391,0,.639a4.26,4.26,0,0,0-4.09,4.2v4.2a4.294,4.294,0,0,0,3.187,4.09c-.133,7.525-5.822,12.69-13.281,14.449v-.53a.884.884,0,0,0-.85-.85H25.63a2.089,2.089,0,0,0-1.649.9,3,3,0,0,0-.476,1.753,3.179,3.179,0,0,0,.476,1.807,2.089,2.089,0,0,0,1.649.9H29.4a.884.884,0,0,0,.85-.85V49.764c8.176-1.807,14.792-7.643,14.981-16.094a4.256,4.256,0,0,0,3.665-4.2v-4.2a4.2,4.2,0,0,0-2.762-3.93c0-.235.007-.726,0-.957A20.053,20.053,0,0,0,36.04,3.655,20.284,20.284,0,0,0,25.948,1Zm18.7,21.78a2.481,2.481,0,0,1,2.55,2.5v4.2a2.525,2.525,0,0,1-2.55,2.55,2.57,2.57,0,0,1-2.6-2.55v-4.2a2.527,2.527,0,0,1,2.6-2.5ZM4.7,24.584H6.452a.85.85,0,0,0,.32,0,1.954,1.954,0,0,1,1.328.425A2.041,2.041,0,0,1,8.525,26.5V28.3A1.888,1.888,0,0,1,8.1,29.736a2.014,2.014,0,0,1-1.487.479H4.7v-5.63Zm5.525,1.807h1.01a.961.961,0,0,1,.955,1.008.918.918,0,0,1-.955.957h-1.01V26.389ZM15.484,31.6a.875.875,0,0,0-.585.85v11.9a.883.883,0,0,0,.85.85H18.3v2.55a.9.9,0,0,0,1.382.637L23.506,45.2h9.242a.884.884,0,0,0,.85-.85v-11.9a.884.884,0,0,0-.85-.85h-17A.85.85,0,0,0,15.484,31.6ZM16.6,33.3H31.9V43.5H23.239a.858.858,0,0,0-.53.16L20,45.887v-1.54a.884.884,0,0,0-.85-.85H16.6Zm4.25,4.25a.85.85,0,1,0,.85.85A.85.85,0,0,0,20.849,37.547Zm3.4,0a.85.85,0,1,0,.85.85A.85.85,0,0,0,24.248,37.547Zm3.4,0a.85.85,0,1,0,.85.85A.85.85,0,0,0,27.648,37.547ZM25.576,48.331c.037-.02.042,0,.054,0h2.92v.53a.865.865,0,0,0,0,.32V50.3H25.63c-.022,0-.1-.049-.212-.212a1.6,1.6,0,0,1,0-1.593A.556.556,0,0,1,25.576,48.331Z" transform="translate(-3 -1)"/>
</svg>
