<svg xmlns="http://www.w3.org/2000/svg" width="40.045" height="51" viewBox="0 0 40.045 51">
  <defs>
    <style>
      .cls-1 {
        fill: #f58935;
        fill-rule: evenodd;
      }
    </style>
  </defs>
  <path id="Path_14" data-name="Path 14" class="cls-1" d="M8.6,1.463A3.6,3.6,0,0,0,5,5.053V17.525a.895.895,0,1,0,1.789,0V5.055A1.781,1.781,0,0,1,8.6,3.255H35.149V7.782a4.1,4.1,0,0,0,.433,1.736,3.478,3.478,0,0,0,3.162,1.825h4.509V48.871a1.782,1.782,0,0,1-1.807,1.8H8.6a1.782,1.782,0,0,1-1.807-1.806V22.146a.895.895,0,1,0-1.789,0V48.869a3.607,3.607,0,0,0,3.6,3.593H41.446a3.608,3.608,0,0,0,3.6-3.593V10.513A.9.9,0,0,0,45,10.18L45,10.158a.9.9,0,0,0-.064-.143l-.009-.021q-.017-.027-.036-.054l-.014-.018q-.019-.029-.041-.057l-.014-.014-.039-.041-8.1-8.088a.977.977,0,0,0-.558-.258q-.037,0-.073,0H8.6ZM36.938,4.514,41.984,9.55H38.745c-1.058,0-1.339-.39-1.568-.841a2.433,2.433,0,0,1-.24-.931V4.514ZM23.825,11.372v.038a.469.469,0,0,0-.081,0h-.057l-.038.025h-.011a.469.469,0,0,0-.276.48v1.775a.469.469,0,0,0,0,.106v1.772a.469.469,0,0,0,.129.376H23.5a.469.469,0,0,0,.059.05h.018a.469.469,0,0,0,.3.073H25.7a.47.47,0,0,0,0-.939H24.3v-.938h.465a.47.47,0,0,0,0-.939H24.3v-.938h1.4a.47.47,0,1,0,0-.939H23.825Zm-3.754.036v0a.469.469,0,0,0-.465.476v3.71a.469.469,0,0,0,.011.125q0,.022.011.043t0,.025q.006.018.014.036a.469.469,0,0,0,.027.052l.018.03h0l.021.025.023.027.011.021h.007l.032.025H19.8l.036.025a.469.469,0,0,0,.251.072h1.866a.47.47,0,1,0,0-.939h-1.4v-3.28a.469.469,0,0,0-.478-.474Zm-7.557,0a.469.469,0,0,0-.059.025,1.4,1.4,0,0,0,.07,2.8h.048a.47.47,0,0,1,0,.939h-.939a.469.469,0,1,0,0,.936h.939a.469.469,0,0,0,.1,0,1.4,1.4,0,0,0,.15-2.777.469.469,0,0,0-.154-.025H12.56a.468.468,0,1,1,0-.936H13.5a.471.471,0,0,0,0-.941h-.986v-.021Zm4.241,0a.469.469,0,0,0-.4.3l-1.408,3.754a.471.471,0,0,0,.88.329l.233-.63h1.466l.233.63a.471.471,0,0,0,.882-.329l-1.408-3.754a.469.469,0,0,0-.433-.3h-.047Zm11.721,0a.469.469,0,0,0-.059.025,1.4,1.4,0,0,0,.07,2.8h.021l.027,0a.468.468,0,1,1,0,.936H27.6a.47.47,0,0,0,0,.939h.939a.469.469,0,0,0,.1,0,1.4,1.4,0,0,0,.15-2.777.469.469,0,0,0-.154-.025h-.107a.468.468,0,1,1,0-.936h.939a.471.471,0,1,0,0-.941h-.986ZM16.792,13.215l.383,1.015h-.759ZM27.9,20.362a1.028,1.028,0,0,0-.147.025H25.543a1.028,1.028,0,1,0,0,2.056h.6L23.954,26.1l-3.208-2.248a1.027,1.027,0,0,0-1.385.191L15.252,29.08a1.027,1.027,0,1,0,1.589,1.3l3.509-4.295,3.328,2.33a1.027,1.027,0,0,0,1.471-.313l2.45-4.084v.48a1.027,1.027,0,0,0,2.054,0V21.414a1.027,1.027,0,0,0-1.027-1.027h-.419A1.027,1.027,0,0,0,28,20.362q-.051,0-.1,0ZM12.167,22.4a1.027,1.027,0,0,0-1.011,1.04V39.886a1.027,1.027,0,0,0,1.029,1.027H32.722a1.028,1.028,0,1,0,0-2.056H29.668V27.552a1.027,1.027,0,1,0-2.054,0V38.857H25.557V31.664a1.027,1.027,0,1,0-2.054,0v7.194H21.445v-8.9a1.027,1.027,0,1,0-2.054,0v8.894H17.333V33.689a1.028,1.028,0,1,0-2.056,0v5.168H13.21V23.441A1.027,1.027,0,0,0,12.165,22.4ZM37.2,23.892V23.9a.795.795,0,0,0-.782.811V25.4a3.345,3.345,0,0,0-2.783,3.18,3.422,3.422,0,0,0,3.489,3.255c.029,0,.059.018.089.018a1.7,1.7,0,1,1,.018,3.35H37.2a1.826,1.826,0,0,1-1.97-1.673.8.8,0,0,0-1.591,0,3.225,3.225,0,0,0,2.783,3.015v.868a.795.795,0,0,0,1.589,0v-.868a3.22,3.22,0,0,0,2.779-3.015,3.286,3.286,0,0,0-3.03-3.065.8.8,0,0,0-.134-.095l-.048-.027-.025-.018L37.5,30.3l-.025-.021-.052-.018H37.4l-.054-.018h-.029q-.038,0-.077,0h-.032a1.833,1.833,0,0,1-1.986-1.673,1.826,1.826,0,0,1,1.945-1.67.794.794,0,0,0,.089,0A1.82,1.82,0,0,1,39.2,28.57a.8.8,0,0,0,1.591,0,3.343,3.343,0,0,0-2.779-3.18V24.7a.795.795,0,0,0-.805-.805Z" transform="translate(-5 -1.463)"/>
</svg>
